PathFileType	4	(X/Y/Z)	0_1_33_p1_0-333.trc
DataRate	CameraRate	NumFrames	NumMarkers	Units	OrigDataRate	OrigDataStartFrame	OrigNumFrames
60	60	6	27	m	60	291	333
Frame#	Time	RHip			RKnee			RAnkle			RBigToe			RSmallToe			RHeel			LHip			LKnee			LAnkle			LBigToe			LSmallToe			LHeel			Neck			Head			Nose			RShoulder			RElbow			RWrist			RThumb			RIndex			RPinky			LShoulder			LElbow			LWrist			LThumb			LIndex			LPinky		
		X1	Y1	Z1	X2	Y2	Z2	X3	Y3	Z3	X4	Y4	Z4	X5	Y5	Z5	X6	Y6	Z6	X7	Y7	Z7	X8	Y8	Z8	X9	Y9	Z9	X10	Y10	Z10	X11	Y11	Z11	X12	Y12	Z12	X13	Y13	Z13	X14	Y14	Z14	X15	Y15	Z15	X16	Y16	Z16	X17	Y17	Z17	X18	Y18	Z18	X19	Y19	Z19	X20	Y20	Z20	X21	Y21	Z21	X22	Y22	Z22	X23	Y23	Z23	X24	Y24	Z24	X25	Y25	Z25	X26	Y26	Z26	X27	Y27	Z27
292	4.866666666666666	0.11594229443276945	0.20221872731352197	0.029914435655906235	0.13705711465100065	0.175687310880873	-0.351736632259167	0.15859592042373238	0.20406771167347543	-0.7520446416371597	0.1835026467629658	0.07293984088369121	-0.7964534507316487	0.10222838905232691	0.0841847861795954	-0.7974540462700689	0.16999999515232864	0.24311017096535245	-0.8081173653688274	0.33016476909325243	0.19829299897752842	0.03908591002136494	0.3423298107493685	0.16010646288232483	-0.3365229886820476	0.3488737286733793	0.2740102234578716	-0.7794371293335411	0.3138295507919815	0.0801885466620343	-0.7968561000850891	0.36295448547899883	0.10004396420021454	-0.7906602331121685	0.33165335593277634	0.2915074151543776	-0.8408206046054382	0.20760444485753468	0.31096615101167474	0.5408629388466126	0.18018261773164201	0.28456756999711885	0.7897885399079405	0.18838486703477306	0.1793542932637096	0.6711152353416273	0.05581993140542129	0.2863667309158456	0.47635093378041227	0.005516105354246405	0.1860795644280206	0.24916570074023708	0.21036290726499798	0.05098407200054115	0.21079699143973046	0.31904816304948774	0.11640678628420813	0.19442024643600983	0.30503628459765175	0.017035041280168115	0.1840855923057274	0.31106968786813616	0.0035381420968456563	0.16277416491510835	0.3638865695886866	0.2681243861812202	0.49242255019598125	0.431886028137482	0.16076399263562363	0.29000807861913763	0.28888615513617205	1.6411298906821416e-05	0.17168704240195423	0.20926324622241313	-0.045059715111666274	0.14340775264721364	0.20274408027411472	-0.053611577802817986	0.10102417160513578	0.23101172772102604	-0.03967824763111689	0.08585591561857785
293	4.883333333333334	0.11592532239003817	0.20474527789563648	0.027909635063306154	0.13740340930439143	0.17739481648787933	-0.35428220492829443	0.16032218671871806	0.20508758953943196	-0.7524239439259962	0.18349549952956207	0.07712935208281868	-0.7992777152246875	0.10446455216181912	0.08772899219825107	-0.7990415699669973	0.17106042900473392	0.24465758200951745	-0.810186719591798	0.33224930981885265	0.19445070372695894	0.038244274189490966	0.3433169473447034	0.16413897137355435	-0.3392268456308371	0.3482479154258967	0.2748961312707218	-0.7775250787007548	0.31429167136907776	0.08353144889895413	-0.7989159159281385	0.3645859884877215	0.10421673491283458	-0.7919266666173784	0.33084957866798964	0.2924355230802021	-0.8395469835335336	0.20996455596566663	0.30380813451784144	0.5419350101374384	0.18311282975319512	0.28182572409237877	0.7922731788381807	0.19186389845719903	0.18140229875392755	0.6705784353213752	0.059908862589845326	0.28522024745326163	0.4789426339893003	0.006365691292913054	0.18229440007083836	0.2508621642122684	0.20674821006083044	0.04715667434097291	0.1945482899227063	0.3132061854920106	0.10410206139784411	0.16870014329402908	0.3001785666633437	0.01830340342930143	0.15191494521794688	0.30661644502651375	0.009468088904088743	0.13484903804792525	0.3652186904657728	0.27136143973986754	0.49082240099019203	0.43172588041285187	0.1594813018509784	0.2875563710878767	0.2928727219737932	0.002342754214634362	0.1638602492976324	0.2190786575389031	-0.04322727779399444	0.1402614796715467	0.21236298652583474	-0.03973500203036016	0.08976783249387983	0.2331122254648158	-0.0243821310071916	0.07556415369985521
294	4.9	0.1161485120119649	0.2059049163007614	0.027219087848367136	0.1381332125552816	0.17906976148208317	-0.3570885584221683	0.16319377087292122	0.20797887503401108	-0.7547314231098621	0.18500104402107592	0.08072156453170594	-0.8017799004525507	0.1069921250853954	0.09263027891462361	-0.8013394696565805	0.172791212041995	0.24872642321287264	-0.8138937305299858	0.3335417179278637	0.191089590788388	0.03877606691714442	0.34424548837831653	0.1699755146305738	-0.3441924064745764	0.3470770008333078	0.2758470140411435	-0.7749831182149263	0.3149066931204039	0.08461766193017611	-0.7989869350547674	0.3670483001231909	0.11055675825609752	-0.7938831660813922	0.33034664157884763	0.2929389358811935	-0.83822013768616	0.21252878487861498	0.2976563906685232	0.5421875623832801	0.1866498184371571	0.2814857837355418	0.7944370825534962	0.19626216922088896	0.18395383426071435	0.6695627773132972	0.06388421921335508	0.2875231002334911	0.4806199405034886	0.0066059027214588634	0.1808242107130865	0.2510138883943596	0.20095751853569474	0.047660628646073525	0.1776428933540803	0.2978955814540749	0.0695675038584915	0.14970854658717844	0.29446683680793584	0.02424772995800002	0.11808955980949082	0.3011190529155058	0.023927025652200236	0.10435055470883231	0.36615516115983515	0.27408758066674005	0.48943574360535846	0.4315871620469679	0.15841076790340985	0.28558210664597716	0.2952359875781388	0.005610462376504307	0.15969722777671008	0.22843469269765518	-0.03986312348366033	0.13962421770736755	0.2198814368961623	-0.028859129395082898	0.0836880374024872	0.23972325897605468	-0.0028697720709432223	0.06388973429933091
295	4.916666666666667	0.1168076886440936	0.20580536642246908	0.02728629604513324	0.13950044833711328	0.18269031948004763	-0.36208975518358333	0.16609913029563564	0.21225991743709297	-0.7581434160011582	0.18732888551974772	0.08269108849322146	-0.8036919792218494	0.10866138558115139	0.09644052364043434	-0.8031024301995753	0.17477115175989258	0.2541713610593982	-0.8181319431416034	0.3334055846318751	0.19095717400440662	0.038333541285254805	0.3447279414340486	0.17575675976822044	-0.35083967142136085	0.3458435740074975	0.2766313766210523	-0.7734344942699332	0.31525080430536523	0.08437174551378199	-0.7983750019625208	0.36942583322666644	0.11682451277746836	-0.7958389321852761	0.3300895367193353	0.2932077345243459	-0.83694898651245	0.2154213976539689	0.29373456372928375	0.5416275735033264	0.19128464309460028	0.2821419978282088	0.7961483463745257	0.2005813636787485	0.18453985705302983	0.6685150301540612	0.0675794931201259	0.2927869360962436	0.480643265757054	0.006762550572957731	0.1819845449947781	0.2495483439971103	0.19516711064187736	0.04898360492656344	0.16264827795989975	0.2829921979221126	0.03711023032475983	0.1335485214654543	0.28857213876058885	0.03198741274450479	0.08785747367616958	0.29535419839468585	0.038185765657184054	0.07834021604230254	0.36760532173571037	0.27763987699436693	0.48773456045995045	0.4316743455301371	0.15813410466255393	0.2834998892511732	0.29624274701683595	0.012719474362315306	0.155588199447783	0.23440768746651866	-0.03281058268689754	0.13474806874549314	0.22401083415988204	-0.02191450546088074	0.07935257623132089	0.24848559353134814	0.0201675133465899	0.051421420806428045
296	4.933333333333334	0.11836902755174088	0.20512288797567607	0.027249597133543243	0.14090023987606407	0.1877943554295943	-0.368840131723976	0.16766615977651828	0.21589947265207393	-0.7605125150278188	0.18865150977125333	0.08333241853875102	-0.8046257232761476	0.10888220506258264	0.09804465705630883	-0.8034924497901648	0.17603941530352463	0.2579923190275605	-0.82090072026753	0.33270545537563906	0.19363742688338453	0.0358102221621482	0.34504718236594756	0.17968140641649366	-0.3573428005827587	0.3453171536736021	0.2768110765532053	-0.7732150550380734	0.31542762370341804	0.08377957223056938	-0.7977320984189451	0.37103959718550616	0.12109725141960324	-0.7973499218423734	0.3300538016898762	0.29337624724221	-0.8348235936935632	0.21912652732352422	0.29208477782666825	0.5408719128159558	0.19666468313566926	0.2818035026283247	0.7973510304689372	0.20447800245161743	0.18168730135929517	0.6682521412418495	0.07032343915069005	0.2984314916071219	0.4796035580267925	0.0078078686827780415	0.1854620978175959	0.24689457846031523	0.19017296583712842	0.049083058124828965	0.15083547375261705	0.2752478960398588	0.02514231307657501	0.11365569314206966	0.2837403699025453	0.0381505060161963	0.06566564031256505	0.28831748060400386	0.04410741798291678	0.059662322451776155	0.3698959031803627	0.2813139804550934	0.4856054410536153	0.432280586627063	0.1592842211853043	0.27957198469669686	0.29521422244158346	0.023198653289741418	0.14971619319999752	0.23391630792310128	-0.022242530136495825	0.12154516761748041	0.2247320173760684	-0.01848288991904703	0.07481865129594398	0.2541257219130024	0.03610346507457651	0.04108390498944349
297	4.95	0.12063300398936931	0.20436981774688512	0.026623451001013914	0.14144240316508777	0.19195802027658002	-0.37447430728304226	0.16746811265420322	0.21767648021735075	-0.7601313168868672	0.18804094715129316	0.08382750724502185	-0.8046953714602836	0.10791517016321474	0.09835897238751747	-0.80265981713248	0.17594107118365943	0.25839038871149567	-0.8205982635222974	0.33271674140674934	0.1961564353615604	0.031681600116459756	0.34538507145665714	0.18042532157486751	-0.3612870137548305	0.34562328508695284	0.2766022982404273	-0.7733544536196558	0.31553479753315583	0.08353437256067514	-0.7970129594819234	0.37213512850297575	0.12376187094611332	-0.7987673077747564	0.33012287050794314	0.29360720699237086	-0.8308899871949865	0.2235917172709328	0.29120229408525145	0.5405602296315446	0.20154755393527435	0.2809857002455699	0.7976073331029392	0.207634409544336	0.1769225720008684	0.6691391629416978	0.071866964964913	0.30241708585234317	0.4784852003149929	0.01047970322292053	0.1899246097346401	0.2438998310629107	0.18475126519356724	0.04821647440427081	0.14176217990000514	0.27255518470062473	0.03044241345810887	0.08857613661206307	0.2799848454657212	0.04194030634285438	0.05122126869085254	0.2778775882323213	0.040348186811894844	0.0453243518000257	0.37255893432179243	0.2822164685490874	0.4835616147642402	0.433508856288282	0.16195963989259166	0.2727873864267999	0.2920919413719231	0.03446212602159455	0.14248693177857785	0.2277173767214415	-0.009808425166316184	0.10187742696091555	0.22292440683850867	-0.015562336673254143	0.06901332360926739	0.25390172487847584	0.03953078580008069	0.03586606862378073
